<?xml version="1.0" encoding="UTF-8" standalone="no"?>
<!DOCTYPE svg PUBLIC "-//W3C//DTD SVG 1.1//EN" "http://www.w3.org/Graphics/SVG/1.1/DTD/svg11.dtd">
<svg width="300" height="300" viewBox="0 0 300 300" version="1.1" xmlns="http://www.w3.org/2000/svg" xmlns:xlink="http://www.w3.org/1999/xlink" xml:space="preserve" xmlns:serif="http://www.serif.com/" style="fill-rule:evenodd;clip-rule:evenodd;stroke-linecap:round;stroke-linejoin:round;stroke-miterlimit:1.5;">
    <g>
        <g transform="matrix(0.850024,0,0,0.729524,0,0)">
            <rect x="0" y="0" width="58.822" height="68.538" style="fill:rgb(235,235,235);stroke:black;stroke-width:0.63px;"/>
        </g>
        <g transform="matrix(0.850024,0,0,0.729524,50,0)">
            <rect x="0" y="0" width="58.822" height="68.538" style="fill:rgb(122,122,122);stroke:black;stroke-width:0.63px;"/>
        </g>
        <g transform="matrix(0.850024,0,0,0.729524,100,0)">
            <rect x="0" y="0" width="58.822" height="68.538" style="fill:rgb(235,235,235);stroke:black;stroke-width:0.63px;"/>
        </g>
        <g transform="matrix(0.850024,0,0,0.729524,150,0)">
            <rect x="0" y="0" width="58.822" height="68.538" style="fill:rgb(235,235,235);stroke:black;stroke-width:0.63px;"/>
        </g>
        <g transform="matrix(0.850024,0,0,0.729524,200,0)">
            <rect x="0" y="0" width="58.822" height="68.538" style="fill:rgb(235,235,235);stroke:black;stroke-width:0.63px;"/>
        </g>
        <g transform="matrix(0.850024,0,0,0.729524,250,0)">
            <rect x="0" y="0" width="58.822" height="68.538" style="fill:rgb(235,235,235);stroke:black;stroke-width:0.63px;"/>
        </g>
        <g transform="matrix(0.850024,0,0,0.729524,0,50)">
            <rect x="0" y="0" width="58.822" height="68.538" style="fill:rgb(235,235,235);stroke:black;stroke-width:0.63px;"/>
        </g>
        <g transform="matrix(0.850024,0,0,0.729524,50,50)">
            <rect x="0" y="0" width="58.822" height="68.538" style="fill:rgb(122,122,122);stroke:black;stroke-width:0.63px;"/>
        </g>
        <g transform="matrix(0.850024,0,0,0.729524,100,50)">
            <rect x="0" y="0" width="58.822" height="68.538" style="fill:rgb(235,235,235);stroke:black;stroke-width:0.63px;"/>
        </g>
        <g transform="matrix(0.850024,0,0,0.729524,150,50)">
            <rect x="0" y="0" width="58.822" height="68.538" style="fill:rgb(235,235,235);stroke:black;stroke-width:0.63px;"/>
        </g>
        <g transform="matrix(0.850024,0,0,0.729524,200,50)">
            <rect x="0" y="0" width="58.822" height="68.538" style="fill:rgb(235,235,235);stroke:black;stroke-width:0.63px;"/>
        </g>
        <g transform="matrix(0.850024,0,0,0.729524,250,50)">
            <rect x="0" y="0" width="58.822" height="68.538" style="fill:rgb(235,235,235);stroke:black;stroke-width:0.63px;"/>
        </g>
        <g transform="matrix(0.850024,0,0,0.729524,0,100)">
            <rect x="0" y="0" width="58.822" height="68.538" style="fill:rgb(235,235,235);stroke:black;stroke-width:0.63px;"/>
        </g>
        <g transform="matrix(0.850024,0,0,0.729524,50,100)">
            <rect x="0" y="0" width="58.822" height="68.538" style="fill:rgb(122,122,122);stroke:black;stroke-width:0.63px;"/>
        </g>
        <g transform="matrix(0.850024,0,0,0.729524,100,100)">
            <rect x="0" y="0" width="58.822" height="68.538" style="fill:rgb(235,235,235);stroke:black;stroke-width:0.63px;"/>
        </g>
        <g transform="matrix(0.850024,0,0,0.729524,150,100)">
            <rect x="0" y="0" width="58.822" height="68.538" style="fill:rgb(235,235,235);stroke:black;stroke-width:0.63px;"/>
        </g>
        <g transform="matrix(0.850024,0,0,0.729524,200,100)">
            <rect x="0" y="0" width="58.822" height="68.538" style="fill:rgb(235,235,235);stroke:black;stroke-width:0.63px;"/>
        </g>
        <g transform="matrix(0.850024,0,0,0.729524,250,100)">
            <rect x="0" y="0" width="58.822" height="68.538" style="fill:rgb(235,235,235);stroke:black;stroke-width:0.63px;"/>
        </g>
        <g transform="matrix(0.850024,0,0,0.729524,0,150)">
            <rect x="0" y="0" width="58.822" height="68.538" style="fill:rgb(235,235,235);stroke:black;stroke-width:0.63px;"/>
        </g>
        <g transform="matrix(0.850024,0,0,0.729524,50,150)">
            <rect x="0" y="0" width="58.822" height="68.538" style="fill:rgb(122,122,122);stroke:black;stroke-width:0.63px;"/>
        </g>
        <g transform="matrix(0.850024,0,0,0.729524,100,150)">
            <rect x="0" y="0" width="58.822" height="68.538" style="fill:rgb(235,235,235);stroke:black;stroke-width:0.63px;"/>
        </g>
        <g transform="matrix(0.850024,0,0,0.729524,150,150)">
            <rect x="0" y="0" width="58.822" height="68.538" style="fill:rgb(235,235,235);stroke:black;stroke-width:0.63px;"/>
        </g>
        <g transform="matrix(0.850024,0,0,0.729524,200,150)">
            <rect x="0" y="0" width="58.822" height="68.538" style="fill:rgb(235,235,235);stroke:black;stroke-width:0.63px;"/>
        </g>
        <g transform="matrix(0.850024,0,0,0.729524,250,150)">
            <rect x="0" y="0" width="58.822" height="68.538" style="fill:rgb(235,235,235);stroke:black;stroke-width:0.63px;"/>
        </g>
        <g transform="matrix(0.850024,0,0,0.729524,0,200)">
            <rect x="0" y="0" width="58.822" height="68.538" style="fill:rgb(235,235,235);stroke:black;stroke-width:0.63px;"/>
        </g>
        <g transform="matrix(0.850024,0,0,0.729524,50,200)">
            <rect x="0" y="0" width="58.822" height="68.538" style="fill:rgb(122,122,122);stroke:black;stroke-width:0.63px;"/>
        </g>
        <g transform="matrix(0.850024,0,0,0.729524,100,200)">
            <rect x="0" y="0" width="58.822" height="68.538" style="fill:rgb(122,122,122);stroke:black;stroke-width:0.63px;"/>
        </g>
        <g transform="matrix(0.850024,0,0,0.729524,150,200)">
            <rect x="0" y="0" width="58.822" height="68.538" style="fill:rgb(122,122,122);stroke:black;stroke-width:0.63px;"/>
        </g>
        <g transform="matrix(0.850024,0,0,0.729524,200,200)">
            <rect x="0" y="0" width="58.822" height="68.538" style="fill:rgb(122,122,122);stroke:black;stroke-width:0.63px;"/>
        </g>
        <g transform="matrix(0.850024,0,0,0.729524,250,200)">
            <rect x="0" y="0" width="58.822" height="68.538" style="fill:rgb(122,122,122);stroke:black;stroke-width:0.63px;"/>
        </g>
        <g transform="matrix(0.850024,0,0,0.729524,0,250)">
            <rect x="0" y="0" width="58.822" height="68.538" style="fill:rgb(235,235,235);stroke:black;stroke-width:0.63px;"/>
        </g>
        <g transform="matrix(0.850024,0,0,0.729524,50,250)">
            <rect x="0" y="0" width="58.822" height="68.538" style="fill:rgb(235,235,235);stroke:black;stroke-width:0.63px;"/>
        </g>
        <g transform="matrix(0.850024,0,0,0.729524,100,250)">
            <rect x="0" y="0" width="58.822" height="68.538" style="fill:rgb(235,235,235);stroke:black;stroke-width:0.63px;"/>
        </g>
        <g transform="matrix(0.850024,0,0,0.729524,150,250)">
            <rect x="0" y="0" width="58.822" height="68.538" style="fill:rgb(235,235,235);stroke:black;stroke-width:0.63px;"/>
        </g>
        <g transform="matrix(0.850024,0,0,0.729524,200,250)">
            <rect x="0" y="0" width="58.822" height="68.538" style="fill:rgb(235,235,235);stroke:black;stroke-width:0.63px;"/>
        </g>
        <g transform="matrix(0.850024,0,0,0.729524,250,250)">
            <rect x="0" y="0" width="58.822" height="68.538" style="fill:rgb(235,235,235);stroke:black;stroke-width:0.63px;"/>
        </g>
    </g>
    <g id="Ebene1">
        <rect x="0" y="0" width="150" height="150" style="fill:none;stroke:rgb(182,63,63);stroke-width:1.5px;"/>
    </g>
    <g id="Ebene11" serif:id="Ebene1" transform="matrix(1,0,0,1,150,0)">
        <rect x="0" y="0" width="150" height="150" style="fill:none;stroke:rgb(182,63,63);stroke-width:1.5px;"/>
    </g>
    <g id="Ebene12" serif:id="Ebene1" transform="matrix(1,0,0,1,0,150)">
        <rect x="0" y="0" width="150" height="150" style="fill:none;stroke:rgb(182,63,63);stroke-width:1.5px;"/>
    </g>
    <g id="Ebene13" serif:id="Ebene1" transform="matrix(1,0,0,1,150,150)">
        <rect x="0" y="0" width="150" height="150" style="fill:none;stroke:rgb(182,63,63);stroke-width:1.5px;"/>
    </g>
</svg>
