<svg width="300" height="300" xmlns="http://www.w3.org/2000/svg" fill-rule="evenodd" clip-rule="evenodd" stroke-linecap="round" stroke-linejoin="round" stroke-miterlimit="1.5">
    <path fill="#ebebeb" stroke="#000" d="M0 0h50v50H0z"/>
    <path fill="#7a7a7a" stroke="#000" d="M50 0h50v50H50z"/>
    <path fill="#ebebeb" stroke="#000" d="M100 0h50v50h-50zM150 0h50v50h-50zM200 0h50v50h-50zM250 0h50v50h-50zM0 50h50v50H0z"/>
    <path fill="#7a7a7a" stroke="#000" d="M50 50h50v50H50z"/>
    <path fill="#ebebeb" stroke="#000" d="M100 50h50v50h-50zM150 50h50v50h-50zM200 50h50v50h-50zM250 50h50v50h-50zM0 100h50v50H0z"/>
    <path fill="#7a7a7a" stroke="#000" d="M50 100h50v50H50z"/>
    <path fill="#ebebeb" stroke="#000" d="M100 100h50v50h-50zM150 100h50v50h-50zM200 100h50v50h-50zM250 100h50v50h-50zM0 150h50v50H0z"/>
    <path fill="#7a7a7a" stroke="#000" d="M50 150h50v50H50z"/>
    <path fill="#ebebeb" stroke="#000" d="M100 150h50v50h-50zM150 150h50v50h-50zM200 150h50v50h-50zM250 150h50v50h-50zM0 200h50v50H0z"/>
    <path fill="#7a7a7a" stroke="#000" d="M50 200h50v50H50zM100 200h50v50h-50zM150 200h50v50h-50zM200 200h50v50h-50zM250 200h50v50h-50z"/>
    <path fill="#ebebeb" stroke="#000" d="M0 250h50v50H0zM50 250h50v50H50zM100 250h50v50h-50zM150 250h50v50h-50zM200 250h50v50h-50zM250 250h50v50h-50z"/>
    <path fill="none" stroke="#b63f3f" stroke-width="2" d="M0 0h300v300H0z"/>
</svg>