<?xml version="1.0" encoding="UTF-8" standalone="no"?>
<!DOCTYPE svg PUBLIC "-//W3C//DTD SVG 1.1//EN" "http://www.w3.org/Graphics/SVG/1.1/DTD/svg11.dtd">
<svg width="150" height="150" viewBox="0 0 150 150" version="1.1" xmlns="http://www.w3.org/2000/svg" xmlns:xlink="http://www.w3.org/1999/xlink" xml:space="preserve" xmlns:serif="http://www.serif.com/" style="fill-rule:evenodd;clip-rule:evenodd;stroke-linecap:round;stroke-linejoin:round;stroke-miterlimit:1.5;">
    <g transform="matrix(0.850024,0,0,0.729524,0,0)">
        <rect x="0" y="0" width="58.822" height="68.538" style="fill:rgb(235,235,235);stroke:black;stroke-width:0.63px;"/>
    </g>
    <g transform="matrix(0.850024,0,0,0.729524,50,0)">
        <rect x="0" y="0" width="58.822" height="68.538" style="fill:rgb(122,122,122);stroke:black;stroke-width:0.63px;"/>
    </g>
    <g transform="matrix(0.850024,0,0,0.729524,100,0)">
        <rect x="0" y="0" width="58.822" height="68.538" style="fill:rgb(235,235,235);stroke:black;stroke-width:0.63px;"/>
    </g>
    <g transform="matrix(0.850024,0,0,0.729524,0,50)">
        <rect x="0" y="0" width="58.822" height="68.538" style="fill:rgb(235,235,235);stroke:black;stroke-width:0.63px;"/>
    </g>
    <g transform="matrix(0.850024,0,0,0.729524,50,50)">
        <rect x="0" y="0" width="58.822" height="68.538" style="fill:rgb(122,122,122);stroke:black;stroke-width:0.63px;"/>
    </g>
    <g transform="matrix(0.850024,0,0,0.729524,100,50)">
        <rect x="0" y="0" width="58.822" height="68.538" style="fill:rgb(235,235,235);stroke:black;stroke-width:0.63px;"/>
    </g>
    <g transform="matrix(0.850024,0,0,0.729524,0,100)">
        <rect x="0" y="0" width="58.822" height="68.538" style="fill:rgb(235,235,235);stroke:black;stroke-width:0.63px;"/>
    </g>
    <g transform="matrix(0.850024,0,0,0.729524,50,100)">
        <rect x="0" y="0" width="58.822" height="68.538" style="fill:rgb(122,122,122);stroke:black;stroke-width:0.63px;"/>
    </g>
    <g transform="matrix(0.850024,0,0,0.729524,100,100)">
        <rect x="0" y="0" width="58.822" height="68.538" style="fill:rgb(235,235,235);stroke:black;stroke-width:0.63px;"/>
    </g>
    <g id="Ebene1">
        <rect x="0" y="0" width="150" height="150" style="fill:none;stroke:rgb(182,63,63);stroke-width:1.5px;"/>
    </g>
</svg>
